<svg xmlns="http://www.w3.org/2000/svg" viewBox="0 0 64.06 9.24"><defs><style>.cls-1{fill:#1c1cc9;}</style></defs><g id="Capa_2" data-name="Capa 2"><g id="Capa_1-2" data-name="Capa 1"><path d="M.39,7A3.77,3.77,0,0,1,.75,5.36,2.6,2.6,0,0,1,1.8,4.21a3,3,0,0,1,1.58-.4,2.92,2.92,0,0,1,2.1.78,3.17,3.17,0,0,1,.9,2.14v.43A3.33,3.33,0,0,1,5.58,9.5a2.82,2.82,0,0,1-2.19.88A2.85,2.85,0,0,1,1.2,9.5,3.38,3.38,0,0,1,.39,7.11Zm1.69.12a2.34,2.34,0,0,0,.34,1.38,1.12,1.12,0,0,0,1,.48,1.12,1.12,0,0,0,1-.48A2.56,2.56,0,0,0,4.7,7a2.35,2.35,0,0,0-.35-1.37,1.13,1.13,0,0,0-1-.49,1.12,1.12,0,0,0-1,.49A2.6,2.6,0,0,0,2.08,7.16ZM3.71,1.27H5.56L3.94,3.08H2.56Z" transform="translate(-0.39 -1.14)"/><path d="M11.43,8.51a.56.56,0,0,0-.3-.49,3.87,3.87,0,0,0-1-.31c-1.51-.32-2.26-1-2.26-1.93a1.74,1.74,0,0,1,.7-1.41,2.83,2.83,0,0,1,1.83-.56,3,3,0,0,1,1.93.57,1.79,1.79,0,0,1,.72,1.47H11.37a.81.81,0,0,0-.24-.6A1,1,0,0,0,10.4,5a1,1,0,0,0-.66.19.59.59,0,0,0-.23.49.52.52,0,0,0,.26.46,2.85,2.85,0,0,0,.9.29,7.64,7.64,0,0,1,1.07.29,1.75,1.75,0,0,1,1.34,1.7,1.68,1.68,0,0,1-.74,1.41,3.29,3.29,0,0,1-1.93.53A3.32,3.32,0,0,1,9,10.1a2.37,2.37,0,0,1-1-.78,1.78,1.78,0,0,1-.35-1.07h1.6a.89.89,0,0,0,.34.69,1.3,1.3,0,0,0,.83.24A1.23,1.23,0,0,0,11.18,9,.58.58,0,0,0,11.43,8.51Z" transform="translate(-0.39 -1.14)"/><path d="M17.37,9a1.11,1.11,0,0,0,.76-.26.9.9,0,0,0,.31-.69H20a2.12,2.12,0,0,1-.35,1.18,2.32,2.32,0,0,1-.94.84,3.08,3.08,0,0,1-1.33.29,2.79,2.79,0,0,1-2.15-.86,3.44,3.44,0,0,1-.78-2.39V7a3.38,3.38,0,0,1,.78-2.34,2.72,2.72,0,0,1,2.14-.87,2.6,2.6,0,0,1,1.9.68A2.36,2.36,0,0,1,20,6.29H18.44a1.18,1.18,0,0,0-.31-.81,1,1,0,0,0-.77-.31,1.05,1.05,0,0,0-.9.43,2.53,2.53,0,0,0-.3,1.4v.18a2.55,2.55,0,0,0,.3,1.41A1,1,0,0,0,17.37,9Z" transform="translate(-0.39 -1.14)"/><path d="M25.23,10.27a1.82,1.82,0,0,1-.17-.57,2.06,2.06,0,0,1-1.6.68,2.23,2.23,0,0,1-1.54-.54,1.73,1.73,0,0,1-.62-1.36,1.78,1.78,0,0,1,.75-1.54,3.74,3.74,0,0,1,2.16-.55H25V6a1,1,0,0,0-.23-.7.86.86,0,0,0-.71-.27,1,1,0,0,0-.67.21.68.68,0,0,0-.24.56h-1.7a1.73,1.73,0,0,1,.34-1,2.24,2.24,0,0,1,1-.73,3.5,3.5,0,0,1,1.4-.27A2.73,2.73,0,0,1,26,4.4a2,2,0,0,1,.69,1.65V8.8a3.07,3.07,0,0,0,.25,1.37v.1Zm-1.4-1.18a1.47,1.47,0,0,0,.69-.17A1.08,1.08,0,0,0,25,8.47V7.38h-.63c-.85,0-1.3.3-1.36.88v.1a.66.66,0,0,0,.22.52A.85.85,0,0,0,23.83,9.09Z" transform="translate(-0.39 -1.14)"/><path d="M32.11,5.51a4.62,4.62,0,0,0-.6,0,1.22,1.22,0,0,0-1.26.65v4.15h-1.7V3.93h1.6l.05.75a1.57,1.57,0,0,1,1.41-.87,1.83,1.83,0,0,1,.53.07Z" transform="translate(-0.39 -1.14)"/><path d="M32.57,9.43a.85.85,0,0,1,.27-.65,1.06,1.06,0,0,1,1.37,0,.85.85,0,0,1,.27.65.83.83,0,0,1-.27.65,1.06,1.06,0,0,1-1.37,0A.83.83,0,0,1,32.57,9.43Z" transform="translate(-0.39 -1.14)"/><path class="cls-1" d="M37,10.27V5.17h-.94V3.93H37V3.39a2.23,2.23,0,0,1,.61-1.66,2.39,2.39,0,0,1,1.72-.59,3.9,3.9,0,0,1,.86.12l0,1.31a2.44,2.44,0,0,0-.51,0q-1,0-1,.9v.51H40V5.17H38.69v5.1Z" transform="translate(-0.39 -1.14)"/><path class="cls-1" d="M41.13,7.05a3.76,3.76,0,0,1,.67-2.36,2.14,2.14,0,0,1,1.82-.88,2,2,0,0,1,1.53.69V1.27h1.69v9H45.31l-.08-.68a2,2,0,0,1-1.63.79,2.14,2.14,0,0,1-1.79-.88A3.94,3.94,0,0,1,41.13,7.05Zm1.69.12a2.45,2.45,0,0,0,.32,1.37A1,1,0,0,0,44,9a1.14,1.14,0,0,0,1.11-.67V5.85a1.13,1.13,0,0,0-1.1-.66Q42.82,5.19,42.82,7.17Z" transform="translate(-0.39 -1.14)"/><path class="cls-1" d="M51.64,10.38a3.1,3.1,0,0,1-2.27-.85,3,3,0,0,1-.88-2.28V7.08a3.76,3.76,0,0,1,.37-1.7,2.69,2.69,0,0,1,1-1.16,2.84,2.84,0,0,1,1.54-.41,2.62,2.62,0,0,1,2,.82A3.33,3.33,0,0,1,54.25,7v.69h-4a1.57,1.57,0,0,0,.49,1,1.52,1.52,0,0,0,1,.38,1.84,1.84,0,0,0,1.53-.71l.83.93a2.52,2.52,0,0,1-1,.84A3.37,3.37,0,0,1,51.64,10.38Zm-.2-5.21a1.05,1.05,0,0,0-.81.35,1.67,1.67,0,0,0-.4,1h2.35V6.36a1.31,1.31,0,0,0-.3-.88A1.14,1.14,0,0,0,51.44,5.17Z" transform="translate(-0.39 -1.14)"/><path class="cls-1" d="M57.72,8.9h3.1v1.37H55.55v-1l3-3.94h-2.9V3.93h5.08v1Z" transform="translate(-0.39 -1.14)"/><path class="cls-1" d="M62.53,9.43a.85.85,0,0,1,.27-.65,1.06,1.06,0,0,1,1.37,0,.85.85,0,0,1,.27.65.83.83,0,0,1-.27.65,1.06,1.06,0,0,1-1.37,0A.83.83,0,0,1,62.53,9.43Z" transform="translate(-0.39 -1.14)"/></g></g></svg>